<?xml version="1.0" encoding="UTF-8"?>
<svg id="Layer_2" data-name="Layer 2" xmlns="http://www.w3.org/2000/svg" xmlns:xlink="http://www.w3.org/1999/xlink" viewBox="0 0 163.21 52.93">
  <defs>
    <style>
      .cls-1 {
        fill: url(#linear-gradient);
      }

      .cls-2 {
        fill: #ffffff;
      }
    </style>
    <linearGradient id="linear-gradient" x1="0" y1="-1635.39" x2="163.21" y2="-1635.39" gradientTransform="translate(0 -1616.34) scale(1 -1)" gradientUnits="userSpaceOnUse">
      <stop offset="0" stop-color="#19cda5"/>
      <stop offset="1" stop-color="#3b8fde"/>
    </linearGradient>
  </defs>
  <g id="Color">
    <g>
      <path class="cls-2" d="m121.51,51.53c13.24-2.83,27-2.85,40.31-.48-13.24-1.89-26.96-1.41-39.94,1.84-.91.27-1.31-1.14-.37-1.37h0Z"/>
      <path id="logo" class="cls-1" d="m44.06,1.98c12.76-5.61,21.5,1.59,20.97,10.8-.53,8.58-4.55,14.83-9.53,19.43-2.7,2.49-4.66,2.44-6.09,3.39,7.04-4.66,11.33-13.87,11.28-20.6-.05-8.37-6.09-13.5-16.57-8.79-7.89,3.6-13.77,10.59-13.87,19.49-.11,7.78,5.61,11.07,13.5,8.21,7.47-3.44,7.25-7.25,7.25-8.68-.05-2.17-1.75-3.18-3.81-2.33-2.33.95-3.6,2.91-3.6,5.03.05,2.59,3.18,2.12,3.18,2.12-6.57,4.66-8.16-.11-8.16-.11l-.11-17.53c3.34-1.32,4.45,1.32,4.45,1.32l.05,7.68c5.03-4.5,9-3.18,10.49-1.59,2.65,2.86.74,9.32-4.08,13.08-1.06.85-1.96,1.43-2.7,2.01-12.34,6.83-21.98,2.33-20.76-10.11,1.16-10.11,9.32-19.01,18.11-22.82ZM6.94,16.54c2.86,0,4.66.48,5.61,1.38.9.95,1.32,2.97,1.32,5.93,0,3.34-.42,5.61-1.27,6.62-.85,1.06-2.65,1.59-5.45,1.59-3.02,0-4.98-.48-5.83-1.43-.9-.95-1.32-3.12-1.32-6.41s.42-5.24,1.32-6.2c.79-1.01,2.7-1.48,5.61-1.48Zm2.75,11.76c.37-.64.58-2.07.58-4.34,0-1.96-.21-3.18-.58-3.71-.42-.53-1.32-.79-2.75-.79s-2.38.26-2.81.79c-.42.53-.58,1.8-.58,3.81,0,2.28.21,3.71.58,4.29.37.58,1.32.85,2.86.85,1.38,0,2.28-.26,2.7-.9Zm10.64-13.19v1.64l3.6-.05v2.75h-3.65v12.5h-3.55v-12.44h-2.01v-2.75h2.07v-1.64c0-1.96.42-3.28,1.22-4.02.79-.74,2.22-1.11,4.4-1.11.37,0,.9,0,1.48.05v2.86c-.48-.11-.9-.16-1.22-.16-1.54,0-2.33.79-2.33,2.38Zm55.39,10.11v-7.94h3.55v14.62h-3.55l.21-2.49-.05-.05c-.69,1.8-2.28,2.7-4.77,2.7-3.39,0-5.03-1.64-5.03-4.98v-9.8h3.55v8.95c0,1.22.21,2.07.53,2.44.37.42,1.06.58,2.17.58,2.22,0,3.39-1.32,3.39-4.02Zm18.27-1.22c.74.58,1.11,1.64,1.11,3.28,0,1.75-.53,3.02-1.54,3.71-1.01.69-2.86,1.01-5.51,1.01s-4.29-.32-5.19-.95c-.9-.64-1.38-1.75-1.38-3.5v-.37h3.71c-.05.21-.11.37-.11.48-.16,1.27.85,1.91,3.02,1.91s3.39-.64,3.39-1.91-.69-1.85-2.12-1.85c-3.18,0-5.24-.32-6.25-.9-1.01-.58-1.54-1.8-1.54-3.65,0-1.69.48-2.81,1.38-3.39.9-.58,2.7-.9,5.3-.9,2.44,0,4.13.32,4.98.85.85.58,1.27,1.69,1.27,3.34h-3.44c0-.11-.05-.21-.05-.26-.05-.69-.26-1.11-.58-1.32-.32-.16-1.11-.26-2.44-.26-1.85,0-2.75.58-2.75,1.75,0,.79.16,1.27.48,1.43.32.16,1.43.26,3.28.37,2.54.26,4.18.64,4.98,1.16Zm17.79-6.94c3.5,0,5.24,1.59,5.24,4.82v9.96h-3.55v-9.32l-.05-1.01c-.21-1.11-1.06-1.64-2.59-1.64-2.38,0-3.6,1.11-3.6,3.34v8.68h-3.55v-14.62h3.55l-.11,2.44h.05c.64-1.75,2.22-2.65,4.61-2.65Zm14.51,0c2.65,0,4.4.48,5.3,1.43.9.95,1.38,2.81,1.38,5.61v1.06h-10.01c-.05.32-.05.58-.05.64,0,1.43.21,2.38.64,2.86.42.48,1.32.69,2.7.69s2.17-.16,2.54-.42c.42-.26.58-.85.58-1.8h3.55v.58c0,2.86-2.17,4.29-6.51,4.29-2.91,0-4.87-.48-5.77-1.48-.9-1.01-1.38-3.07-1.38-6.25,0-2.81.48-4.77,1.43-5.72,1.01-.95,2.86-1.48,5.61-1.48Zm-2.75,3.23c-.42.42-.58,1.32-.58,2.75l6.46.05-.05-.58c0-1.16-.21-1.91-.58-2.28-.42-.32-1.27-.53-2.65-.53s-2.17.21-2.59.58Zm23.51,3.71c.74.58,1.11,1.64,1.11,3.28,0,1.75-.53,3.02-1.54,3.71-1.01.69-2.86,1.01-5.51,1.01s-4.24-.32-5.19-.95c-.9-.64-1.38-1.75-1.38-3.5v-.37h3.71c-.05.21-.11.37-.11.48-.16,1.27.85,1.91,3.02,1.91s3.39-.64,3.39-1.91-.69-1.85-2.12-1.85c-3.18,0-5.24-.32-6.25-.9-1.01-.58-1.54-1.8-1.54-3.65,0-1.69.48-2.81,1.38-3.39.9-.58,2.7-.9,5.3-.9,2.44,0,4.13.32,4.98.85.85.58,1.27,1.69,1.27,3.34h-3.44c0-.11-.05-.21-.05-.26-.05-.69-.26-1.11-.58-1.32-.32-.16-1.11-.26-2.44-.26-1.85,0-2.75.58-2.75,1.75,0,.79.16,1.27.48,1.43.32.16,1.43.26,3.28.37,2.54.26,4.24.64,4.98,1.16Zm15.04,0c.74.58,1.11,1.64,1.11,3.28,0,1.75-.53,3.02-1.54,3.71-1.01.69-2.86,1.01-5.51,1.01s-4.24-.32-5.19-.95c-.9-.64-1.38-1.75-1.38-3.5v-.37h3.71c-.05.21-.11.37-.11.48-.16,1.27.85,1.91,3.02,1.91s3.39-.64,3.39-1.91-.69-1.85-2.12-1.85c-3.18,0-5.24-.32-6.25-.9-1.01-.58-1.48-1.75-1.48-3.6,0-1.69.48-2.81,1.38-3.39.9-.58,2.7-.9,5.3-.9,2.44,0,4.13.32,4.98.85.85.58,1.27,1.69,1.27,3.34h-3.44c0-.11-.05-.21-.05-.26-.05-.69-.26-1.11-.58-1.32-.32-.16-1.11-.26-2.44-.26-1.85,0-2.75.58-2.75,1.75,0,.79.16,1.27.48,1.43.32.16,1.43.26,3.28.37,2.54.21,4.18.58,4.92,1.11Zm-64.82,8v-14.72h3.44v14.67h-3.44v.05Z"/>
      <g>
        <path class="cls-2" d="m52.07,39.43h2.11c.35,0,.66.07.91.2.26.14.46.32.59.54.14.23.2.47.2.74,0,.36-.1.67-.31.91-.2.24-.46.41-.76.51v.05c.53.28.8.7.8,1.26,0,.36-.1.68-.3.96-.2.29-.47.51-.81.67-.34.16-.72.24-1.13.24h-2.39l1.08-6.08Zm1.46,5.2c.3,0,.56-.09.79-.26.22-.17.33-.41.33-.72,0-.25-.08-.45-.24-.6-.16-.15-.38-.22-.66-.22h-1.34l-.31,1.8h1.43Zm.33-2.65c.32,0,.58-.08.77-.24.2-.16.3-.38.3-.66,0-.22-.07-.4-.22-.55s-.34-.22-.59-.22h-1.26l-.3,1.67h1.3Z"/>
        <path class="cls-2" d="m59.21,44.95c-.15.22-.34.38-.58.51-.24.12-.52.19-.83.19-.44,0-.78-.12-1.02-.36-.25-.24-.37-.55-.37-.94,0-.19.02-.38.06-.58l.46-2.59h.93l-.45,2.55c-.03.14-.04.26-.04.37,0,.22.07.38.22.51.15.12.34.19.58.19.33,0,.61-.12.84-.35s.38-.54.45-.91l.42-2.35h.93l-.76,4.33h-.88l.1-.56h-.05Z"/>
        <path class="cls-2" d="m61.61,45.32c-.31-.22-.52-.51-.62-.86l.87-.36c.05.23.17.41.36.53.19.12.41.18.65.18.23,0,.41-.05.56-.15.15-.1.22-.23.22-.39s-.05-.28-.16-.37c-.1-.1-.27-.17-.49-.22l-.44-.11c-.33-.09-.61-.23-.81-.43-.21-.2-.31-.45-.31-.75,0-.26.08-.49.23-.7.15-.2.36-.36.63-.48s.58-.17.93-.17c.4,0,.75.09,1.04.27.29.18.49.42.6.73l-.87.33c-.06-.16-.17-.29-.32-.39-.15-.09-.33-.14-.53-.14-.23,0-.42.05-.55.14-.14.09-.2.21-.2.35,0,.1.05.2.14.28.1.09.23.15.39.2l.59.14c.34.08.61.24.81.45s.29.47.29.77c0,.44-.16.8-.49,1.07-.33.27-.77.4-1.35.4-.48,0-.87-.11-1.18-.33Z"/>
        <path class="cls-2" d="m65.96,41.18h.93l-.76,4.33h-.93l.76-4.33Zm.25-.8c-.12-.12-.18-.27-.18-.45s.06-.32.18-.45c.12-.12.27-.18.45-.18s.32.06.45.18.18.27.18.45-.06.32-.18.45c-.12.12-.27.18-.45.18s-.32-.06-.45-.18Z"/>
        <path class="cls-2" d="m68.91,41.75c.15-.22.34-.39.58-.52.24-.12.51-.19.82-.19.44,0,.78.12,1.03.36.24.24.37.56.37.95,0,.18-.02.37-.05.57l-.46,2.59h-.93l.45-2.54c.03-.15.04-.28.04-.37,0-.21-.07-.38-.22-.5s-.34-.18-.58-.18c-.33,0-.61.12-.84.35-.24.23-.38.54-.45.91l-.42,2.34h-.93l.76-4.33h.88l-.1.57h.05Z"/>
        <path class="cls-2" d="m73.32,45.38c-.3-.18-.54-.43-.7-.73s-.24-.65-.24-1.01c0-.45.1-.88.31-1.27.21-.4.5-.71.88-.95.38-.24.81-.36,1.3-.36.38,0,.72.08,1,.25.28.17.5.39.64.67.15.28.22.58.22.91,0,.25-.03.48-.09.68h-3.33s0,.1,0,.19c0,.33.12.59.34.78s.48.29.79.29.58-.06.79-.18c.21-.12.38-.3.53-.54l.71.39c-.46.78-1.16,1.16-2.1,1.16-.4,0-.75-.09-1.05-.27Zm2.52-2.54v-.07c0-.25-.09-.46-.28-.65-.19-.18-.45-.27-.77-.27s-.6.09-.84.28c-.24.19-.4.42-.5.7h2.39Z"/>
        <path class="cls-2" d="m77.72,45.32c-.31-.22-.52-.51-.62-.86l.87-.36c.05.23.17.41.36.53.19.12.41.18.65.18.23,0,.41-.05.56-.15.15-.1.22-.23.22-.39s-.05-.28-.16-.37c-.1-.1-.27-.17-.49-.22l-.44-.11c-.33-.09-.61-.23-.81-.43-.21-.2-.31-.45-.31-.75,0-.26.08-.49.23-.7.15-.2.36-.36.63-.48s.58-.17.93-.17c.4,0,.75.09,1.04.27.29.18.49.42.6.73l-.87.33c-.06-.16-.17-.29-.32-.39-.15-.09-.33-.14-.53-.14-.23,0-.42.05-.55.14-.14.09-.2.21-.2.35,0,.1.05.2.14.28.1.09.23.15.39.2l.59.14c.34.08.61.24.81.45s.29.47.29.77c0,.44-.16.8-.49,1.07-.33.27-.77.4-1.35.4-.48,0-.87-.11-1.18-.33Z"/>
        <path class="cls-2" d="m81.82,45.32c-.31-.22-.52-.51-.62-.86l.87-.36c.05.23.17.41.36.53.19.12.41.18.65.18.23,0,.41-.05.56-.15.15-.1.22-.23.22-.39s-.05-.28-.16-.37c-.1-.1-.27-.17-.49-.22l-.44-.11c-.33-.09-.61-.23-.81-.43-.21-.2-.31-.45-.31-.75,0-.26.08-.49.23-.7.15-.2.36-.36.63-.48s.58-.17.93-.17c.4,0,.75.09,1.04.27.29.18.49.42.6.73l-.87.33c-.06-.16-.17-.29-.32-.39-.15-.09-.33-.14-.53-.14-.23,0-.42.05-.55.14-.14.09-.2.21-.2.35,0,.1.05.2.14.28.1.09.23.15.39.2l.59.14c.34.08.61.24.81.45s.29.47.29.77c0,.44-.16.8-.49,1.07-.33.27-.77.4-1.35.4-.48,0-.87-.11-1.18-.33Z"/>
        <path class="cls-2" d="m88.49,39.43h1.27l.94,4.61h.04l2.56-4.61h1.32l-1.08,6.08h-.94l.6-3.4.25-1.1h-.05l-2.5,4.5h-.78l-.96-4.5h-.05l-.14,1.1-.6,3.4h-.94l1.08-6.08Z"/>
        <path class="cls-2" d="m95.52,45.47c-.21-.12-.39-.28-.51-.48-.13-.2-.19-.43-.19-.69,0-.48.17-.86.52-1.15.34-.28.83-.42,1.45-.42.21,0,.42.02.62.07.2.04.39.1.55.18l.04-.21c.02-.08.03-.15.03-.2,0-.21-.09-.39-.28-.52s-.41-.2-.67-.2c-.44,0-.8.17-1.09.51l-.67-.48c.22-.27.48-.47.81-.61.32-.14.67-.21,1.05-.21.54,0,.97.13,1.28.39.31.26.47.61.47,1.04,0,.12-.01.27-.04.45l-.46,2.59h-.92l.09-.52h-.05c-.14.2-.32.36-.54.48s-.48.17-.77.17c-.26,0-.5-.06-.71-.17Zm1.86-.93c.24-.22.39-.5.45-.85-.16-.08-.32-.15-.47-.19-.16-.04-.35-.06-.58-.06-.31,0-.55.07-.73.21-.18.14-.27.33-.27.58,0,.19.07.35.21.46s.31.17.52.17c.34,0,.63-.11.88-.33Z"/>
        <path class="cls-2" d="m100.15,45.3c-.2-.19-.31-.45-.31-.78,0-.15.01-.29.04-.43l.37-2.08h-.76l.15-.82h.75l.22-1.22h.93l-.22,1.22h1.06l-.15.82h-1.05l-.36,2c-.02.12-.03.22-.03.28,0,.13.04.23.12.31.08.08.19.11.33.11.2,0,.38-.05.55-.16l-.15.91c-.2.08-.43.13-.69.13-.34,0-.61-.09-.82-.28Z"/>
        <path class="cls-2" d="m103.63,39.43h.93l-1.07,6.08h-.93l1.07-6.08Z"/>
        <path class="cls-2" d="m105.4,45.47c-.21-.12-.39-.28-.51-.48-.13-.2-.19-.43-.19-.69,0-.48.17-.86.52-1.15.34-.28.83-.42,1.45-.42.21,0,.42.02.62.07.2.04.39.1.55.18l.04-.21c.02-.08.03-.15.03-.2,0-.21-.09-.39-.28-.52s-.41-.2-.67-.2c-.44,0-.8.17-1.09.51l-.67-.48c.22-.27.48-.47.81-.61.32-.14.67-.21,1.05-.21.54,0,.97.13,1.28.39.31.26.47.61.47,1.04,0,.12-.01.27-.04.45l-.46,2.59h-.92l.09-.52h-.05c-.14.2-.32.36-.54.48s-.48.17-.77.17c-.26,0-.5-.06-.71-.17Zm1.86-.93c.24-.22.39-.5.45-.85-.16-.08-.32-.15-.47-.19-.16-.04-.35-.06-.58-.06-.31,0-.55.07-.73.21-.18.14-.27.33-.27.58,0,.19.07.35.21.46s.31.17.52.17c.34,0,.63-.11.88-.33Z"/>
        <path class="cls-2" d="m110.74,45.45c-.24-.13-.43-.3-.56-.5h-.04l-.1.56h-.88l1.07-6.08h.93l-.31,1.71-.15.61h.05c.12-.2.31-.37.54-.5.24-.14.52-.2.84-.2.34,0,.65.08.92.25.27.17.49.41.65.72.16.31.24.66.24,1.06,0,.48-.1.91-.31,1.3-.21.39-.49.7-.85.93s-.77.34-1.21.34c-.31,0-.59-.07-.83-.2Zm1.52-.87c.23-.14.42-.33.55-.58s.2-.53.2-.84c0-.36-.11-.65-.33-.89-.22-.24-.5-.36-.83-.36-.28,0-.53.08-.75.23-.22.15-.39.36-.52.62-.13.26-.19.54-.19.84,0,.36.11.65.32.87s.48.33.79.33c.28,0,.53-.07.76-.21Z"/>
        <path class="cls-2" d="m117.8,45.29c-.43-.23-.77-.56-1.01-.98-.25-.42-.37-.9-.37-1.45,0-.63.15-1.22.45-1.76.3-.55.73-.98,1.27-1.31.55-.33,1.17-.49,1.86-.49.53,0,1.01.12,1.44.36.43.24.76.57,1.01.99.24.42.37.9.37,1.44,0,.63-.15,1.21-.45,1.76-.3.55-.73.98-1.27,1.31s-1.16.49-1.85.49c-.53,0-1-.12-1.44-.35Zm2.8-.92c.39-.24.69-.57.92-.97.22-.4.33-.83.33-1.28,0-.38-.08-.71-.25-1.01-.17-.29-.4-.52-.7-.67s-.63-.24-.99-.24c-.46,0-.88.12-1.27.36s-.69.56-.92.96c-.22.4-.34.83-.34,1.28,0,.39.08.72.25,1.01.17.29.4.52.7.67.29.16.62.24.99.24.46,0,.89-.12,1.28-.37Z"/>
        <path class="cls-2" d="m124.25,42.01h-.79l.14-.82h.8l.05-.34c.07-.46.27-.83.59-1.09.32-.26.71-.39,1.18-.39.27,0,.48.04.65.11l-.16.9c-.16-.09-.35-.14-.56-.14-.19,0-.35.06-.5.18s-.24.28-.27.49l-.04.27h1.08l-.14.82h-1.09l-.62,3.51h-.93l.62-3.51Z"/>
        <path class="cls-2" d="m127.76,39.43h2.11c.35,0,.66.07.91.2.26.14.46.32.59.54.14.23.2.47.2.74,0,.36-.1.67-.31.91-.2.24-.46.41-.76.51v.05c.53.28.8.7.8,1.26,0,.36-.1.68-.3.96-.2.29-.47.51-.81.67-.34.16-.72.24-1.13.24h-2.39l1.08-6.08Zm1.46,5.2c.3,0,.56-.09.79-.26.22-.17.33-.41.33-.72,0-.25-.08-.45-.24-.6-.16-.15-.38-.22-.66-.22h-1.34l-.31,1.8h1.43Zm.33-2.65c.32,0,.58-.08.77-.24.2-.16.3-.38.3-.66,0-.22-.07-.4-.22-.55s-.34-.22-.59-.22h-1.26l-.3,1.67h1.3Z"/>
        <path class="cls-2" d="m134.9,44.95c-.15.22-.34.38-.58.51-.24.12-.52.19-.83.19-.44,0-.78-.12-1.02-.36-.25-.24-.37-.55-.37-.94,0-.19.02-.38.06-.58l.46-2.59h.93l-.45,2.55c-.03.14-.04.26-.04.37,0,.22.07.38.22.51.15.12.34.19.58.19.33,0,.61-.12.84-.35s.38-.54.45-.91l.42-2.35h.93l-.76,4.33h-.88l.1-.56h-.05Z"/>
        <path class="cls-2" d="m137.29,45.32c-.31-.22-.52-.51-.62-.86l.87-.36c.05.23.17.41.36.53.19.12.41.18.65.18.23,0,.41-.05.56-.15.15-.1.22-.23.22-.39s-.05-.28-.16-.37c-.1-.1-.27-.17-.49-.22l-.44-.11c-.33-.09-.61-.23-.81-.43-.21-.2-.31-.45-.31-.75,0-.26.08-.49.23-.7.15-.2.36-.36.63-.48s.58-.17.93-.17c.4,0,.75.09,1.04.27.29.18.49.42.6.73l-.87.33c-.06-.16-.17-.29-.32-.39-.15-.09-.33-.14-.53-.14-.23,0-.42.05-.55.14-.14.09-.2.21-.2.35,0,.1.05.2.14.28.1.09.23.15.39.2l.59.14c.34.08.61.24.81.45s.29.47.29.77c0,.44-.16.8-.49,1.07-.33.27-.77.4-1.35.4-.48,0-.87-.11-1.18-.33Z"/>
        <path class="cls-2" d="m141.65,41.18h.93l-.76,4.33h-.93l.76-4.33Zm.25-.8c-.12-.12-.18-.27-.18-.45s.06-.32.18-.45c.12-.12.27-.18.45-.18s.32.06.45.18.18.27.18.45-.06.32-.18.45c-.12.12-.27.18-.45.18s-.32-.06-.45-.18Z"/>
        <path class="cls-2" d="m144.6,41.75c.15-.22.34-.39.58-.52.24-.12.51-.19.82-.19.44,0,.78.12,1.03.36.24.24.37.56.37.95,0,.18-.02.37-.05.57l-.46,2.59h-.93l.45-2.54c.03-.15.04-.28.04-.37,0-.21-.07-.38-.22-.5s-.34-.18-.58-.18c-.33,0-.61.12-.84.35-.24.23-.38.54-.45.91l-.42,2.34h-.93l.76-4.33h.88l-.1.57h.05Z"/>
        <path class="cls-2" d="m149,45.38c-.3-.18-.54-.43-.7-.73s-.24-.65-.24-1.01c0-.45.1-.88.31-1.27.21-.4.5-.71.88-.95.38-.24.81-.36,1.3-.36.38,0,.72.08,1,.25.28.17.5.39.64.67.15.28.22.58.22.91,0,.25-.03.48-.09.68h-3.33s0,.1,0,.19c0,.33.12.59.34.78s.48.29.79.29.58-.06.79-.18c.21-.12.38-.3.53-.54l.71.39c-.46.78-1.16,1.16-2.1,1.16-.4,0-.75-.09-1.05-.27Zm2.52-2.54v-.07c0-.25-.09-.46-.28-.65-.19-.18-.45-.27-.77-.27s-.6.09-.84.28c-.24.19-.4.42-.5.7h2.39Z"/>
        <path class="cls-2" d="m153.41,45.32c-.31-.22-.52-.51-.62-.86l.87-.36c.05.23.17.41.36.53.19.12.41.18.65.18.23,0,.41-.05.56-.15.15-.1.22-.23.22-.39s-.05-.28-.16-.37c-.1-.1-.27-.17-.49-.22l-.44-.11c-.33-.09-.61-.23-.81-.43-.21-.2-.31-.45-.31-.75,0-.26.08-.49.23-.7.15-.2.36-.36.63-.48s.58-.17.93-.17c.4,0,.75.09,1.04.27.29.18.49.42.6.73l-.87.33c-.06-.16-.17-.29-.32-.39-.15-.09-.33-.14-.53-.14-.23,0-.42.05-.55.14-.14.09-.2.21-.2.35,0,.1.05.2.14.28.1.09.23.15.39.2l.59.14c.34.08.61.24.81.45s.29.47.29.77c0,.44-.16.8-.49,1.07-.33.27-.77.4-1.35.4-.48,0-.87-.11-1.18-.33Z"/>
        <path class="cls-2" d="m157.51,45.32c-.31-.22-.52-.51-.62-.86l.87-.36c.05.23.17.41.36.53.19.12.41.18.65.18.23,0,.41-.05.56-.15.15-.1.22-.23.22-.39s-.05-.28-.16-.37c-.1-.1-.27-.17-.49-.22l-.44-.11c-.33-.09-.61-.23-.81-.43-.21-.2-.31-.45-.31-.75,0-.26.08-.49.23-.7.15-.2.36-.36.63-.48s.58-.17.93-.17c.4,0,.75.09,1.04.27.29.18.49.42.6.73l-.87.33c-.06-.16-.17-.29-.32-.39-.15-.09-.33-.14-.53-.14-.23,0-.42.05-.55.14-.14.09-.2.21-.2.35,0,.1.05.2.14.28.1.09.23.15.39.2l.59.14c.34.08.61.24.81.45s.29.47.29.77c0,.44-.16.8-.49,1.07-.33.27-.77.4-1.35.4-.48,0-.87-.11-1.18-.33Z"/>
        <path class="cls-2" d="m161.27,45.37c-.13-.13-.19-.28-.19-.46s.06-.33.19-.46c.13-.12.28-.19.46-.19s.33.06.46.19c.13.12.19.28.19.46s-.06.33-.19.46c-.13.13-.28.19-.46.19s-.33-.06-.46-.19Zm.62-4.1l.32-1.84h.95l-.33,1.84-.49,2.26h-.76l.31-2.26Z"/>
      </g>
    </g>
  </g>
</svg>