<svg id="Layer_1" data-name="Layer 1" xmlns="http://www.w3.org/2000/svg" xmlns:xlink="http://www.w3.org/1999/xlink" viewBox="0 0 787 257"><defs><linearGradient id="linear-gradient" x1="222.06" y1="115.55" x2="695.34" y2="227.46" gradientUnits="userSpaceOnUse"><stop offset="0" stop-color="#01d6a4"/><stop offset="1" stop-color="#007cfa"/></linearGradient><linearGradient id="linear-gradient-2" x1="225.34" y1="110.14" x2="698.62" y2="222.05" xlink:href="#linear-gradient"/><linearGradient id="linear-gradient-3" x1="239.22" y1="64.11" x2="712.5" y2="176.02" xlink:href="#linear-gradient"/><linearGradient id="linear-gradient-4" x1="244.97" y1="39.82" x2="718.25" y2="151.74" xlink:href="#linear-gradient"/><linearGradient id="linear-gradient-5" x1="162.37" y1="40.57" x2="60.7" y2="166.44" xlink:href="#linear-gradient"/><linearGradient id="linear-gradient-6" x1="104.07" y1="88.14" x2="173.14" y2="196.17" xlink:href="#linear-gradient"/><linearGradient id="linear-gradient-7" x1="269.57" y1="91.81" x2="183.09" y2="155.71" xlink:href="#linear-gradient"/><linearGradient id="linear-gradient-8" x1="113.65" y1="197.39" x2="222.34" y2="103.06" xlink:href="#linear-gradient"/><linearGradient id="linear-gradient-9" x1="9415.73" y1="-5891.67" x2="9534.05" y2="-5953.23" gradientTransform="translate(11042.37 2568.13) rotate(-135)" xlink:href="#linear-gradient"/><linearGradient id="linear-gradient-10" x1="200.12" y1="20.12" x2="200.95" y2="126.76" xlink:href="#linear-gradient"/></defs><path d="M353.48,195.16l-19.76-26.91-15.25,26.91H277.63l35.19-55.33L276.13,89.58h41.4l19.57,26.73,15.44-26.73h40.84l-36.33,54,37.83,51.56Z" fill="url(#linear-gradient)"/><path d="M437.53,89.58l22.59,59.1L481,89.58h41l-66.81,156H414.57l25.78-54.95-44-101.07Z" fill="url(#linear-gradient-2)"/><path d="M568.32,164.49h46.3v30.67h-87V166l42.91-45.73H528.42V89.58h84.32v29Z" fill="url(#linear-gradient-3)"/><path d="M706.93,94.76a47.79,47.79,0,0,1,19.67,18.82q7.14,12.33,7.15,28.7,0,16.56-7.15,28.79a48.55,48.55,0,0,1-19.67,18.82,64.36,64.36,0,0,1-56.74,0,48.29,48.29,0,0,1-19.76-18.82q-7.15-12.23-7.15-28.79t7.15-28.8a47.73,47.73,0,0,1,19.76-18.72,65.16,65.16,0,0,1,56.74,0ZM665.81,125.9q-5.09,5.65-5.08,16.38,0,10.92,5.08,16.56a16.5,16.5,0,0,0,12.8,5.65,16.2,16.2,0,0,0,12.61-5.74q5.07-5.75,5.08-16.47t-5.08-16.38a16.31,16.31,0,0,0-12.61-5.64A16.49,16.49,0,0,0,665.81,125.9Z" fill="url(#linear-gradient-4)"/><path d="M93.8,154a84.47,84.47,0,0,1-10.29-41c.2-27.46,13.29-47.44,33-56.95,25.74-12.38,44.4-6.79,66.5,8.92A74.53,74.53,0,0,0,146.36,72h0C98,93,81.41,123,93.8,154Z" fill-rule="evenodd" fill="url(#linear-gradient-5)"/><path d="M149.18,197.54c.14.07.07,0,0,0a91.92,91.92,0,0,1-14.22-5.22A89.51,89.51,0,0,1,93.8,154C81.41,123,98,93,146.35,72h0c-43.94,20.51-68.63,79.87-10.91,117.71A127.5,127.5,0,0,0,149.18,197.54Z" fill-rule="evenodd" fill="url(#linear-gradient-6)"/><path d="M131,140.36c26.13,39.94,89.07,27,117-8.92,9.1-11.71,14.48-25.86,13.62-41.41a84,84,0,0,1,.58,44.82,86,86,0,0,1-5.1,14.19C226.55,194.64,162.69,194.84,131,140.36Z" fill-rule="evenodd" fill="url(#linear-gradient-7)"/><path d="M218.59,189.76c-71,38.43-133.23-31.45-94.37-87.85a49.61,49.61,0,0,0,5.16,35.86q.76,1.32,1.59,2.58h0c31.71,54.48,95.57,54.28,126.07,8.68A88.82,88.82,0,0,1,218.59,189.76Z" fill-rule="evenodd" fill="url(#linear-gradient-8)"/><path d="M226.47,117.33c10.8-46.07-43.22-79.82-89.25-73.47-15,2.07-29.19,8.41-40,20a88.41,88.41,0,0,1,32.45-32.09,92.46,92.46,0,0,1,14-6.56C198.68,13.76,244,57.18,226.47,117.33Z" fill-rule="evenodd" fill="url(#linear-gradient-9)"/><path d="M200.74,22.64c78.33,21.22,71.15,113.12,2.33,126.49,0,0,16.89-9.15,22.63-28.87.29-1,.54-2,.77-2.92h0C244,57.18,198.68,13.76,143.69,25.2A94.05,94.05,0,0,1,200.74,22.64Z" fill-rule="evenodd" fill="url(#linear-gradient-10)"/></svg>